<svg width="1469" height="185" viewBox="0 0 1469 185" fill="none" xmlns="http://www.w3.org/2000/svg">
<path d="M395.922 73.3838L422.925 32.377H480.485L505.962 73.3838L532.965 32.377H565.605L503.269 120.696H471.909L491.099 94.7119L451.672 37.8926L393.229 120.696H361.869L381.059 94.7119L337.805 32.377H370.445L395.922 73.3838ZM285.28 30.457C298.763 30.457 309.942 31.6091 318.816 33.9131C327.776 36.1318 334.475 39.7158 338.912 44.665C343.349 49.5289 345.568 55.9286 345.568 63.8643C345.568 71.8002 343.349 78.2005 338.912 83.0645C334.475 87.9284 327.776 91.4698 318.816 93.6885C309.942 95.9071 298.763 97.0166 285.28 97.0166C271.712 97.0166 260.406 95.9071 251.36 93.6885C242.4 91.4698 235.658 87.9285 231.136 83.0645C226.699 78.2005 224.48 71.8001 224.48 63.8643C224.481 55.9286 226.699 49.5289 231.136 44.665C235.658 39.7157 242.4 36.1318 251.36 33.9131C260.406 31.6091 271.712 30.457 285.28 30.457ZM68.5273 76.9922L98.8164 13.0967H137.473L167.761 76.9922L200.192 13.0967H235.776L190.465 95.0166H147.2L118.144 38.2725L89.0889 95.0166H45.8242L0 13.0967H36.0967L68.5273 76.9922ZM285.28 49.0166C278.966 49.0166 273.59 49.5714 269.152 50.6807C264.8 51.79 261.472 53.4542 259.168 55.6729C256.949 57.8061 255.84 60.5365 255.84 63.8643C255.84 67.1069 256.949 69.838 259.168 72.0566C261.387 74.19 264.672 75.8116 269.024 76.9209C273.462 77.9448 278.88 78.457 285.28 78.457C291.595 78.457 296.886 77.9449 301.152 76.9209C305.419 75.8116 308.661 74.1899 310.88 72.0566C313.099 69.838 314.208 67.1069 314.208 63.8643C314.208 60.6218 313.098 57.8914 310.88 55.6729C308.747 53.4542 305.547 51.79 301.28 50.6807C297.014 49.5713 291.68 49.0166 285.28 49.0166Z" fill="white"/>
<path d="M1043.83 109H1043.8C1043.8 128.891 1035.9 147.968 1021.84 162.033C1007.77 176.098 981.84 184.097 961.949 184.097C942.058 184.097 914.532 176.195 900.467 162.13C886.402 148.065 878.5 128.988 878.5 109.097H909.097C909.097 120.873 913.775 132.167 922.103 140.494C930.43 148.821 950.173 153.5 961.949 153.5C973.726 153.5 991.873 148.725 1000.2 140.397C1008.53 132.07 1013.21 120.776 1013.21 109H1013.11V32.8965H1043.83V109Z" fill="#E21937"/>
<path fill-rule="evenodd" clip-rule="evenodd" d="M1111.57 30.3291C1124.54 30.3291 1135.16 31.4812 1143.44 33.7852C1151.72 36.0892 1157.82 39.8436 1161.74 45.0488C1165.67 50.1688 1167.55 57.1238 1167.38 65.9131H1080.34C1080.76 68.1316 1081.96 70.1794 1083.92 72.0566C1085.97 73.9339 1089.08 75.4704 1093.26 76.665C1097.53 77.7744 1103.21 78.3291 1110.29 78.3291C1117.63 78.3291 1123.64 77.8169 1128.34 76.793C1133.11 75.769 1135.97 74.3178 1136.91 72.4404H1167.12C1166.35 77.3898 1163.88 81.6998 1159.7 85.3691C1155.6 89.0384 1149.58 91.8964 1141.65 93.9443C1133.8 95.907 1123.77 96.8887 1111.57 96.8887C1098.68 96.8887 1087.55 95.8644 1078.16 93.8164C1068.86 91.7685 1061.69 88.313 1056.66 83.4492C1051.62 78.5852 1049.1 72.0137 1049.1 63.7363C1049.1 55.5445 1051.54 49.0163 1056.4 44.1523C1061.35 39.2032 1068.48 35.6616 1077.78 33.5283C1087.08 31.3951 1098.34 30.3291 1111.57 30.3291ZM1110.29 48.8887C1101.24 48.8887 1094.33 49.8703 1089.55 51.833C1084.86 53.7956 1082.09 55.7581 1081.23 57.7207H1137.55C1136.95 55.5021 1134.57 53.4971 1130.38 51.7051C1126.2 49.8278 1119.5 48.8887 1110.29 48.8887Z" fill="#E21937"/>
<path d="M1420.49 30.3291C1431.24 30.3291 1440.03 31.4386 1446.86 33.6572C1453.68 35.7905 1458.72 38.6912 1461.96 42.3604C1465.2 46.0296 1466.78 50.1685 1466.7 54.7764H1439.18C1438.24 52.5579 1436.44 51.0222 1433.8 50.1689C1431.24 49.3157 1426.8 48.8887 1420.49 48.8887C1414.51 48.8887 1410.16 49.3582 1407.43 50.2969C1404.79 51.1502 1403.46 52.5581 1403.46 54.5205C1403.46 55.8005 1404.1 56.7822 1405.38 57.4648C1406.75 58.0622 1409.27 58.4891 1412.94 58.7451C1416.69 59.0011 1422.15 59.1289 1429.32 59.1289C1434.27 59.1289 1439.09 59.2993 1443.78 59.6406C1448.56 59.982 1452.83 60.7071 1456.58 61.8164C1460.42 62.9257 1463.45 64.6326 1465.67 66.9365C1467.89 69.2405 1469 72.3985 1469 76.4092C1469 81.2728 1466.99 85.2406 1462.98 88.3125C1459.06 91.2992 1453.47 93.4755 1446.22 94.8408C1438.96 96.2061 1430.39 96.8887 1420.49 96.8887C1411.87 96.8887 1404.57 96.3339 1398.6 95.2246C1392.71 94.1153 1387.89 92.665 1384.14 90.873C1380.38 88.9957 1377.48 86.9898 1375.43 84.8564C1373.47 82.638 1372.15 80.4622 1371.46 78.3291C1370.87 76.1104 1370.65 74.1471 1370.82 72.4404H1399.11C1400.31 74.659 1402.57 76.1955 1405.9 77.0488C1409.31 77.9022 1414.17 78.3291 1420.49 78.3291C1425.35 78.3291 1428.94 78.0725 1431.24 77.5605C1433.63 77.0486 1435.16 76.3659 1435.85 75.5127C1436.62 74.6595 1437 73.7637 1437 72.8252C1437 71.3746 1436.19 70.3929 1434.57 69.8809C1433.03 69.2835 1430.39 68.9418 1426.63 68.8564C1422.88 68.6858 1417.71 68.6006 1411.14 68.6006C1404.91 68.6006 1399.33 68.345 1394.38 67.833C1389.51 67.2357 1385.37 66.3392 1381.96 65.1445C1378.55 63.8645 1375.94 62.1151 1374.15 59.8965C1372.36 57.6779 1371.46 54.905 1371.46 51.5771C1371.46 47.4813 1372.79 44.0675 1375.43 41.3369C1378.08 38.521 1381.66 36.3446 1386.18 34.8086C1390.71 33.1873 1395.91 32.0352 1401.8 31.3525C1407.77 30.6699 1414 30.3291 1420.49 30.3291Z" fill="#E21937"/>
<path d="M961.949 30.457C972.701 30.457 981.491 31.5665 988.317 33.7852C995.144 35.9185 1000.18 38.8199 1003.42 42.4893C1006.66 46.1585 1008.24 50.2975 1008.16 54.9053H980.638C979.699 52.6867 977.907 51.1502 975.262 50.2969C972.702 49.4435 968.264 49.0166 961.949 49.0166C955.976 49.0166 951.624 49.4862 948.894 50.4248C946.248 51.2781 944.926 52.686 944.926 54.6484C944.926 55.9284 945.566 56.9101 946.846 57.5928C948.211 58.1901 950.728 58.6171 954.397 58.873C958.152 59.129 963.613 59.2568 970.781 59.2568C975.73 59.2568 980.552 59.4272 985.245 59.7686C990.024 60.1099 994.291 60.835 998.046 61.9443C1001.89 63.0537 1004.92 64.7605 1007.13 67.0645C1009.35 69.3685 1010.46 72.5264 1010.46 76.5371C1010.46 81.4009 1008.46 85.3685 1004.45 88.4404C1000.52 91.4271 994.931 93.6034 987.678 94.9688C980.424 96.3341 971.848 97.0166 961.949 97.0166C953.331 97.0166 946.035 96.4619 940.062 95.3525C934.174 94.2432 929.352 92.7929 925.598 91.001C921.843 89.1236 918.942 87.1177 916.894 84.9844C914.931 82.7659 913.608 80.5902 912.926 78.457C912.328 76.2384 912.114 74.275 912.285 72.5684H940.573C941.768 74.787 944.029 76.3234 947.357 77.1768C950.771 78.0301 955.635 78.457 961.949 78.457C966.813 78.457 970.397 78.2004 972.701 77.6885C975.091 77.1765 976.627 76.494 977.31 75.6406C978.077 74.7874 978.462 73.8916 978.462 72.9531C978.462 71.5025 977.651 70.5208 976.029 70.0088C974.493 69.4115 971.848 69.0697 968.094 68.9844C964.339 68.8137 959.176 68.7285 952.605 68.7285C946.376 68.7285 940.787 68.4729 935.838 67.9609C930.974 67.3636 926.835 66.4671 923.422 65.2725C920.009 63.9925 917.405 62.2431 915.613 60.0244C913.822 57.8059 912.926 55.0328 912.926 51.7051C912.926 47.6091 914.248 44.1955 916.894 41.4648C919.539 38.6489 923.123 36.4725 927.646 34.9365C932.168 33.3152 937.374 32.1631 943.262 31.4805C949.235 30.7978 955.464 30.457 961.949 30.457Z" fill="#E21937"/>
<path fill-rule="evenodd" clip-rule="evenodd" d="M832.225 30.457C842.465 30.457 851.297 31.8647 858.721 34.6807C866.23 37.4113 871.989 41.2945 876 46.3291C877.453 48.0849 878.647 49.9484 879.585 51.9189V32.377H910.305V95.0967H881.377C881.376 95.0913 881.205 94.1096 880.864 92.1523C880.608 90.1898 880.31 87.374 879.969 83.7051C879.797 81.2464 879.684 78.5001 879.627 75.4668C879.338 76.0881 879.028 76.7019 878.688 77.3047C876.384 81.3154 873.056 84.8141 868.704 87.8008C864.352 90.702 859.105 92.9637 852.961 94.585C846.817 96.121 839.905 96.8887 832.225 96.8887C823.009 96.8887 814.816 95.6088 807.648 93.0488C800.48 90.4035 794.805 86.6065 790.624 81.6572C786.528 76.7079 784.48 70.7337 784.48 63.7363C784.481 56.3979 786.528 50.2539 790.624 45.3047C794.805 40.3554 800.48 36.6436 807.648 34.1689C814.816 31.6943 823.009 30.457 832.225 30.457ZM843.744 50.041C835.04 50.041 828.299 51.1931 823.521 53.4971C818.742 55.7157 816.353 59.1286 816.353 63.7363C816.353 66.723 817.419 69.2411 819.553 71.2891C821.686 73.3369 824.801 74.8725 828.896 75.8965C832.992 76.9205 837.942 77.4326 843.744 77.4326C850.229 77.4326 856.16 77.0492 861.536 76.2812C866.997 75.4279 871.35 74.0193 874.593 72.0566C877.921 70.094 879.585 67.3202 879.585 63.7363C879.585 60.0673 877.92 57.2516 874.593 55.2891C871.35 53.3264 866.997 51.9604 861.536 51.1924C856.16 50.4244 850.229 50.041 843.744 50.041Z" fill="#E21937"/>
<path d="M1329.44 30.3291C1334.48 30.3291 1339.34 30.8839 1344.03 31.9932C1348.73 33.0172 1352.91 34.8092 1356.58 37.3691C1360.33 39.9291 1363.32 43.428 1365.54 47.8652C1367.76 52.3025 1368.87 57.8917 1368.87 64.6328V94.9688H1338.15V68.4727C1338.15 62.0727 1336.48 57.5496 1333.15 54.9043C1329.83 52.1737 1323.81 50.8086 1315.11 50.8086C1310.5 50.8086 1306.02 51.3207 1301.67 52.3447C1297.4 53.3687 1293.56 54.6061 1290.15 56.0566C1288 56.9147 1286.14 57.7728 1284.57 58.6309C1284.79 60.5182 1284.9 62.5189 1284.9 64.6328V94.9688H1254.18V68.4727C1254.18 62.0727 1252.51 57.5496 1249.19 54.9043C1245.86 52.1736 1239.84 50.8086 1231.14 50.8086C1226.53 50.8086 1222.05 51.3208 1217.7 52.3447C1213.43 53.3687 1209.59 54.606 1206.18 56.0566C1203.46 57.1457 1201.19 58.2352 1199.39 59.3242V94.9688H1168.67V32.249H1199.39V51.8008C1199.91 50.9204 1200.55 49.9494 1201.31 48.8887C1203.36 46.0727 1206.31 43.2564 1210.15 40.4404C1213.99 37.6246 1218.81 35.2351 1224.61 33.2725C1230.5 31.3099 1237.45 30.3291 1245.47 30.3291C1250.51 30.3291 1255.37 30.8838 1260.07 31.9932C1264.76 33.0172 1268.94 34.8092 1272.61 37.3691C1276.36 39.9291 1279.35 43.428 1281.57 47.8652C1282.15 49.0187 1282.65 50.2504 1283.07 51.5596C1283.71 50.6105 1284.58 49.5073 1285.67 48.249C1287.88 45.689 1291 43.0431 1295.01 40.3125C1299.11 37.5818 1304.01 35.2351 1309.73 33.2725C1315.53 31.3099 1322.1 30.3291 1329.44 30.3291Z" fill="#E21937"/>
<path d="M735.769 31.0732C740.803 31.0733 745.667 31.628 750.36 32.7373C755.054 33.7613 759.235 35.5533 762.904 38.1133C766.659 40.6733 769.646 44.1721 771.864 48.6094C774.083 53.0466 775.192 58.6358 775.192 65.377V95.7129H744.473V69.2168C744.473 62.8168 742.808 58.2938 739.48 55.6484C736.152 52.9179 730.136 51.5528 721.433 51.5527C716.825 51.5527 712.344 52.0649 707.992 53.0889C703.726 54.1128 699.886 55.3502 696.473 56.8008C694.328 57.6588 692.469 58.517 690.896 59.375C691.115 61.2624 691.225 63.263 691.225 65.377V95.7129H660.504V69.2168C660.504 62.8169 658.841 58.2938 655.513 55.6484C652.185 52.9178 646.168 51.5527 637.464 51.5527C632.856 51.5528 628.376 52.0649 624.024 53.0889C619.758 54.1129 615.917 55.3501 612.504 56.8008C609.781 57.8898 607.52 58.9793 605.721 60.0684V95.7129H575V32.9932H605.721V52.5449C606.238 51.6645 606.878 50.6935 607.641 49.6328C609.689 46.8169 612.633 44.0005 616.473 41.1846C620.313 38.3687 625.134 35.9792 630.937 34.0166C636.824 32.054 643.779 31.0733 651.8 31.0732C656.834 31.0732 661.699 31.628 666.393 32.7373C671.086 33.7613 675.267 35.5533 678.937 38.1133C682.691 40.6733 685.678 44.1722 687.896 48.6094C688.473 49.7628 688.974 50.9946 689.4 52.3037C690.037 51.3547 690.902 50.2514 691.992 48.9932C694.211 46.4332 697.325 43.7873 701.336 41.0566C705.432 38.326 710.339 35.9793 716.057 34.0166C721.859 32.054 728.43 31.0732 735.769 31.0732Z" fill="#E21937"/>
<path d="M1044.73 19.2002H1012.22V0H1044.73V19.2002Z" fill="#E21937"/>
</svg>
